<?xml version="1.0" standalone="no"?>
<!DOCTYPE svg PUBLIC "-//W3C//DTD SVG 20010904//EN"
 "http://www.w3.org/TR/2001/REC-SVG-20010904/DTD/svg10.dtd">
<svg version="1.0" xmlns="http://www.w3.org/2000/svg"
 width="688.000000pt" height="688.000000pt" viewBox="0 0 688.000000 688.000000"
 preserveAspectRatio="xMidYMid meet">
<metadata>
Created by potrace 1.14, written by Peter Selinger 2001-2017
</metadata>
<g transform="translate(0.000000,688.000000) scale(0.100000,-0.100000)"
fill="#000000" stroke="none">
<path d="M3248 6555 c-2 -2 -56 -6 -120 -9 -64 -3 -147 -9 -185 -13 -37 -4
-78 -7 -90 -7 -13 -1 -23 -4 -23 -7 0 -3 -10 -5 -22 -4 -55 4 -355 -64 -518
-118 -52 -17 -99 -32 -105 -33 -14 -3 -167 -64 -180 -72 -5 -4 -15 -7 -21 -8
-16 -3 -252 -121 -283 -142 -14 -10 -34 -22 -44 -25 -25 -9 -247 -159 -326
-220 -359 -278 -697 -679 -898 -1066 -24 -47 -47 -90 -52 -96 -4 -5 -21 -41
-38 -80 -17 -38 -40 -90 -51 -115 -72 -162 -181 -499 -208 -640 -2 -14 -7 -36
-10 -50 -7 -30 -8 -38 -28 -155 -33 -202 -39 -272 -40 -545 -1 -236 5 -339 28
-495 6 -36 9 -50 41 -215 3 -14 8 -38 11 -54 2 -16 7 -33 10 -38 3 -4 7 -17
10 -28 9 -44 13 -58 39 -140 15 -47 43 -125 62 -175 41 -110 192 -415 204
-415 5 0 9 -6 9 -12 0 -11 111 -183 147 -228 6 -8 33 -42 60 -75 70 -88 108
-130 212 -233 88 -88 304 -272 319 -272 4 0 18 -10 32 -23 20 -18 176 -119
252 -162 54 -31 248 -126 250 -123 2 1 15 -4 28 -13 14 -9 86 -40 160 -70 123
-49 142 -53 215 -54 66 0 90 5 137 27 55 26 138 101 138 125 0 7 4 13 8 13 5
0 15 28 23 63 13 53 15 264 14 1467 -1 1312 -2 1407 -18 1438 -67 125 -309
143 -677 52 -79 -20 -188 -49 -205 -54 -5 -2 -14 -5 -20 -6 -11 -2 -139 -47
-165 -57 -8 -3 -19 -7 -25 -8 -11 -3 -109 -41 -140 -54 -11 -5 -45 -19 -75
-31 -89 -36 -219 -100 -226 -111 -12 -20 -73 113 -94 205 -9 40 -17 32 139
123 181 105 446 219 601 259 131 34 213 53 245 57 22 4 51 9 64 12 50 10 179
18 296 18 145 0 228 -8 340 -33 22 -5 41 -7 43 -6 6 7 -167 59 -233 70 -16 3
-41 8 -54 11 -119 24 -408 23 -541 -1 -14 -2 -43 -7 -65 -10 -22 -3 -47 -8
-55 -10 -8 -3 -26 -8 -40 -10 -24 -5 -94 -22 -115 -28 -5 -1 -30 -8 -55 -15
-78 -22 -145 -44 -155 -51 -5 -4 -28 -13 -50 -20 -22 -7 -60 -22 -85 -33 -25
-10 -61 -26 -80 -35 -19 -8 -75 -34 -123 -57 l-89 -43 7 72 c9 103 41 280 65
361 12 39 22 75 23 80 8 37 79 206 123 291 69 135 77 148 91 157 7 4 13 13 13
19 0 14 49 78 58 76 4 -1 36 12 72 29 167 79 428 160 575 179 17 2 41 6 55 9
88 19 480 26 595 11 75 -10 268 -46 285 -53 8 -3 24 -7 35 -8 34 -5 155 -45
265 -87 89 -34 210 -93 352 -170 31 -17 33 -17 63 2 111 70 357 179 505 224
166 50 370 90 468 91 17 0 32 2 32 5 0 14 447 0 525 -17 11 -2 32 -6 47 -8 97
-14 312 -69 373 -94 11 -5 58 -23 105 -41 173 -66 189 -77 251 -181 62 -105
98 -177 159 -324 41 -96 96 -287 115 -400 3 -16 8 -37 10 -45 2 -8 7 -44 10
-80 4 -36 9 -68 12 -72 7 -13 -32 -9 -63 6 -56 27 -100 45 -179 76 -44 17 -89
35 -100 40 -43 20 -321 106 -375 116 -14 3 -50 11 -80 19 -48 11 -84 18 -180
31 -135 19 -353 24 -440 10 -25 -4 -61 -9 -80 -12 -19 -2 -51 -10 -70 -16 -19
-6 -44 -12 -55 -12 -11 -1 -24 -4 -30 -7 -5 -4 -39 -16 -75 -28 -36 -12 -76
-29 -90 -37 -17 -11 -19 -13 -5 -9 19 6 28 8 85 20 46 8 114 17 161 20 26 1
50 4 55 6 22 10 341 -2 411 -15 10 -2 43 -7 73 -12 30 -4 57 -8 60 -9 3 -1 23
-5 45 -9 22 -5 67 -15 100 -23 33 -8 65 -16 70 -18 6 -1 17 -4 25 -7 8 -3 47
-15 85 -27 72 -24 185 -65 220 -81 83 -38 259 -124 300 -147 110 -62 115 -66
109 -88 -20 -75 -58 -182 -73 -206 -18 -29 -18 -29 -36 -9 -10 11 -24 20 -31
20 -7 0 -14 4 -16 9 -3 8 -208 110 -233 116 -5 1 -23 8 -40 14 -84 35 -329
120 -367 127 -5 1 -9 2 -10 4 -2 1 -10 3 -18 5 -8 1 -53 12 -100 24 -47 12
-100 24 -119 26 -18 2 -41 6 -50 9 -28 8 -133 18 -213 21 -66 2 -110 -2 -188
-19 -53 -11 -114 -55 -137 -99 -16 -30 -17 -133 -18 -1432 -1 -1036 2 -1414
11 -1453 20 -91 85 -171 173 -214 58 -28 188 -35 232 -12 16 8 29 11 29 7 0
-4 5 -2 12 5 7 7 22 12 34 12 13 0 25 4 29 9 3 5 22 15 43 22 80 25 312 139
440 215 46 27 95 56 110 64 14 8 31 18 37 23 5 4 55 40 110 80 196 143 409
344 527 498 12 17 37 48 54 69 28 34 112 158 170 250 59 93 147 279 224 470
24 60 107 349 116 405 1 11 5 29 7 40 2 11 7 36 11 55 3 19 8 44 10 55 2 11 7
47 11 80 4 32 9 68 11 80 21 106 21 582 0 717 -3 18 -8 51 -10 73 -4 36 -19
133 -32 210 -10 63 -74 314 -102 405 -31 99 -98 281 -128 347 -51 114 -136
286 -170 343 -21 36 -39 67 -39 70 -3 25 -211 323 -304 435 -141 172 -321 352
-470 471 -13 10 -28 24 -35 29 -30 28 -176 135 -184 135 -4 0 -17 8 -28 18
-26 23 -189 122 -202 122 -6 0 -12 4 -14 8 -3 9 -176 97 -283 144 -115 50
-323 123 -411 143 -11 2 -44 11 -74 20 -30 8 -71 18 -90 21 -19 3 -51 9 -70
14 -19 5 -57 11 -84 15 -27 3 -52 8 -55 9 -3 2 -38 7 -77 10 -39 4 -82 9 -95
12 -24 6 -565 14 -571 9z"/>
<path d="M3363 3308 c-6 -7 -13 -44 -17 -83 -3 -38 -8 -88 -11 -110 -5 -47
-14 -155 -20 -240 -2 -33 -6 -94 -9 -135 -10 -140 -19 -374 -20 -537 -1 -90
-5 -163 -9 -163 -5 0 -5 -4 -2 -10 3 -5 8 -128 11 -272 2 -145 6 -297 8 -338
11 -192 23 -372 31 -445 2 -22 7 -71 10 -110 3 -38 9 -90 12 -115 3 -25 5 -52
6 -60 0 -20 16 -40 33 -40 22 0 50 55 63 118 20 108 25 154 36 332 27 437 21
1565 -9 1910 -12 128 -38 258 -60 296 -6 10 -46 11 -53 2z"/>
<path d="M3872 2860 c-10 -16 -15 -55 -27 -217 -33 -412 -33 -879 -1 -1303 3
-30 7 -88 10 -128 9 -112 35 -143 68 -79 17 32 23 53 33 117 25 172 26 1327 1
1445 -2 11 -7 41 -10 68 -9 63 -21 94 -44 106 -14 7 -21 5 -30 -9z"/>
<path d="M2859 2858 c0 -7 -2 -22 -4 -33 -2 -11 -7 -54 -10 -95 -4 -41 -9 -93
-11 -115 -13 -137 -19 -323 -19 -635 0 -345 8 -527 30 -745 1 -16 3 -47 4 -67
1 -40 23 -70 45 -62 21 8 35 46 51 134 13 76 19 290 19 750 -1 610 -6 725 -40
833 -13 39 -20 47 -40 47 -13 0 -24 -6 -25 -12z"/>
</g>
</svg>
