<svg width="122" height="37" viewBox="0 0 122 37" fill="none" xmlns="http://www.w3.org/2000/svg">
<g clip-path="url(#clip0_441_4288)">
<path d="M18.9726 0.0552099C-1.26227 0.41411 -7.74535 29.9821 11.6112 36.8653C11.8896 36.9788 12.1911 37.0226 12.4899 36.9928C12.7887 36.963 13.0759 36.8606 13.327 36.6942C13.5781 36.5278 13.7858 36.3025 13.932 36.0374C14.0783 35.7723 14.1589 35.4754 14.167 35.1719V18.8574C14.045 15.8271 4.77304 19.8589 5.01704 20.0513C4.76491 19.5866 4.57885 19.0884 4.46437 18.5712C10.4863 14.6579 14.932 16.334 14.932 16.334C13.2106 15.5274 9.59208 14.854 4.44978 17.613C4.56186 15.3895 5.29118 13.2429 6.55425 11.4191C8.64439 10.3378 10.9757 9.82137 13.3216 9.91992C15.6675 10.0185 17.9483 10.7287 19.9425 11.9816C21.9367 10.7353 24.2142 10.028 26.5565 9.92782C28.8989 9.82761 31.2274 10.3377 33.3186 11.4093C34.5359 13.2453 35.2722 15.3638 35.4585 17.5661C29.1523 14.6406 26.2182 15.6655 24.4944 16.4734C24.4944 16.4734 29.2523 14.8096 35.3462 18.57C35.2563 19.0982 35.0851 19.6088 34.8388 20.0833C33.6639 19.051 25.851 16.1774 25.6631 18.866V35.1855C25.6712 35.4882 25.7515 35.7845 25.8973 36.0491C26.043 36.3136 26.2498 36.5387 26.5 36.7051C26.7503 36.8715 27.0366 36.9743 27.3346 37.0048C27.6326 37.0352 27.9336 36.9925 28.2117 36.8801C48.471 29.5122 40.2982 -1.48152 18.9726 0.0552099Z" fill="#2130AC"/>
<path d="M19.6749 19.3313C20.7106 18.1251 20.4691 26.3675 20.574 27.1186C20.4752 27.8647 20.7045 36.1428 19.6749 34.9181C19.1038 29.7385 19.1038 24.5108 19.6749 19.3313Z" fill="#FF4C45"/>
<path d="M16.7482 21.9929C17.5913 20.9594 17.3278 26.5711 17.423 27.1113C17.3241 27.6774 17.5998 33.2373 16.7482 32.2407C16.3919 28.8343 16.3919 25.3994 16.7482 21.9929Z" fill="#FF4C45"/>
<path d="M22.6603 21.9769C23.4887 20.9533 23.2557 26.5674 23.3594 27.1125C23.2532 27.6836 23.496 33.236 22.6603 32.2481C22.3144 28.8333 22.3144 25.3917 22.6603 21.9769Z" fill="#FF4C45"/>
<path d="M47.3325 10.8466C47.3307 10.7821 47.3421 10.718 47.3662 10.6582C47.3904 10.5985 47.4266 10.5445 47.4725 10.4997C47.5184 10.4549 47.5731 10.4202 47.633 10.398C47.693 10.3758 47.7568 10.3664 47.8205 10.3706C48.0925 10.6173 61.5162 9.7909 61.0587 10.8466C60.9892 11.1426 61.2002 12.9174 60.9257 13.1234C60.9257 13.4662 55.9444 13.2134 55.7444 13.2862C55.6138 13.6562 55.9969 27.4843 55.6114 27.763C55.4528 28.0714 53.4045 27.8543 53.1275 27.916C52.0295 28.5203 52.8749 13.4687 52.6236 13.2862C52.5089 13.2455 47.3423 13.4095 47.4692 13.1518C47.1959 12.9569 47.3862 11.15 47.3325 10.8466Z" fill="#0F0F54"/>
<path d="M66.1571 15.3556C65.9034 14.9856 64.2771 15.2323 63.9148 15.1657C63.8285 15.1606 63.7421 15.1743 63.6616 15.206C63.581 15.2377 63.5082 15.2866 63.4481 15.3494C63.388 15.4122 63.342 15.4873 63.3132 15.5697C63.2845 15.6521 63.2737 15.7398 63.2816 15.8268C63.5793 16.1549 62.5618 28.6954 63.9233 27.9135C64.4894 27.7605 66.4853 28.355 66.3804 27.2622V15.8206C66.3769 15.7318 66.3553 15.6446 66.3168 15.5645C66.2784 15.4845 66.224 15.4134 66.1571 15.3556Z" fill="#0F0F54"/>
<path d="M66.1994 10.5348C65.9407 10.2228 64.273 10.4288 63.9155 10.3708C63.8286 10.359 63.7401 10.3679 63.6571 10.3968C63.5742 10.4256 63.4989 10.4735 63.4375 10.5369C63.376 10.6002 63.3301 10.6771 63.3031 10.7615C63.2762 10.8459 63.2691 10.9355 63.2824 11.0232C63.3983 11.5918 62.8932 13.4356 63.9265 13.3419C64.5182 13.2297 66.4482 13.7452 66.3811 12.6451C66.3189 12.2862 66.5446 10.7815 66.1994 10.5348Z" fill="#FF4C45"/>
<path d="M70.3636 14.4639C70.7296 13.9175 71.7348 14.2246 72.2729 14.1494C73.1098 14.1297 72.9488 15.4284 73.0561 15.9612C76.172 11.6741 82.8381 14.7476 82.3549 19.9078C82.2793 20.1779 82.5502 27.7457 82.1732 27.7259C81.9292 28.0959 80.3883 27.8493 80.0162 27.922C79.4416 27.9146 79.3099 27.7493 79.2977 27.182C79.2318 26.3828 79.4806 19.412 79.1036 18.8397C78.3509 16.3558 74.7532 16.3361 73.6332 18.5684C72.9012 19.8745 73.6515 26.1559 73.2208 27.5619C73.0586 28.2156 71.3555 27.8147 70.9199 27.9195C70.471 27.9195 70.2367 27.7099 70.2343 27.2683C70.3892 26.8391 69.9732 14.8401 70.3636 14.4639Z" fill="#0F0F54"/>
<path d="M95.9815 26.943C96.0297 26.6271 96.0549 26.308 96.0572 25.9884C92.2752 30.49 84.7233 26.5829 85.054 21.002C84.7343 15.3447 92.3398 11.2907 96.1962 15.9059C96.3829 15.2892 96.1035 14.1262 97.0002 14.1175C97.6602 14.2162 98.9437 13.771 99.0279 14.7577C98.818 17.1355 99.5512 26.8665 98.4593 28.9015C97.0429 32.3548 92.79 33.4648 89.4716 32.382C88.6835 32.012 86.6534 31.5323 87.1756 30.3828C87.5086 30.0671 87.9929 28.6795 88.6078 28.9632C90.8587 30.6406 95.5118 30.2397 95.9815 26.943ZM88.0674 21.002C88.0137 26.5607 96.0376 26.5643 96.1865 21.0994C96.2462 15.5297 88.0405 15.3287 88.0674 21.002Z" fill="#0F0F54"/>
<path d="M102.257 11.075C102.145 9.99094 104.195 10.5582 104.744 10.4238C104.906 10.4358 105.058 10.5099 105.167 10.631C105.277 10.7521 105.336 10.911 105.334 11.075V27.2687C105.341 27.359 105.329 27.4498 105.299 27.535C105.268 27.6201 105.22 27.6975 105.157 27.762C104.907 28.0987 103.24 27.8496 102.888 27.9248C102.433 27.9248 102.259 27.7151 102.254 27.2736C102.257 27.2687 102.257 11.075 102.257 11.075Z" fill="#0F0F54"/>
<path d="M122 27.2745C121.961 28.2723 120.341 27.811 119.726 27.9146C118.916 27.9627 119.052 26.8663 118.987 26.3433C114.968 30.6205 107.57 26.6159 107.833 21.0203C107.531 15.3346 115.327 11.2856 119.157 15.9241C119.296 15.4074 119.127 14.0125 119.972 14.1149C120.56 14.1852 121.95 13.8361 122 14.7549V27.2745ZM110.847 21.0178C110.799 26.6381 118.943 26.5506 118.966 21.0178C118.923 15.4974 110.814 15.4086 110.847 21.024V21.0178Z" fill="#0F0F54"/>
</g>
<defs>
<clipPath id="clip0_441_4288">
<rect width="122" height="37" fill="white"/>
</clipPath>
</defs>
</svg>
